<svg xmlns="http://www.w3.org/2000/svg" viewBox="0 0 400 260" width="400" height="260" role="img" aria-label="Alat-alat adaptive">
  <title>Alat-alat adaptive</title>
  <defs>
    <linearGradient id="g" x1="0" y1="0" x2="1" y2="1">
      <stop offset="0%" stop-color="#6d28d9"/>
      <stop offset="100%" stop-color="#8b5cf6"/>
    </linearGradient>
    <linearGradient id="sheen" x1="0" y1="0" x2="0" y2="1">
      <stop offset="0%" stop-color="#ffffff" stop-opacity=".22"/>
      <stop offset="60%" stop-color="#ffffff" stop-opacity="0"/>
    </linearGradient>
  </defs>
  <rect width="400" height="260" fill="url(#g)"/>
  <rect width="400" height="260" fill="url(#sheen)"/>
  <circle cx="348" cy="34" r="104" fill="#ffffff" fill-opacity=".12"/>
  <circle cx="286" cy="228" r="66" fill="#ffffff" fill-opacity=".09"/>
  <circle cx="64" cy="236" r="92" fill="#000000" fill-opacity=".06"/>
  <g transform="translate(134 44) scale(5.5000)" fill="none" stroke="#ffffff" stroke-width="0.836" stroke-linecap="round" stroke-linejoin="round">
    <path stroke-linecap="round" stroke-linejoin="round" d="M8.25 6.75h12M8.25 12h12m-12 5.25h12M3.75 6.75h.007v.008H3.75V6.75Zm.375 0a.375.375 0 1 1-.75 0 .375.375 0 0 1 .75 0ZM3.75 12h.007v.008H3.75V12Zm.375 0a.375.375 0 1 1-.75 0 .375.375 0 0 1 .75 0Zm-.375 5.25h.007v.008H3.75v-.008Zm.375 0a.375.375 0 1 1-.75 0 .375.375 0 0 1 .75 0Z"/>
  </g>
  <text x="24" y="234" fill="#ffffff" fill-opacity=".92" font-family="Inter, 'Segoe UI', system-ui, sans-serif" font-size="15" font-weight="700" letter-spacing="1.1">REHABILITASI &amp; FISIOTERAPI</text>
</svg>
